<svg width="469" height="756" viewBox="0 0 469 756" fill="none" xmlns="http://www.w3.org/2000/svg">
  <g clip-path="url(#clip0_316_29)">
  <path d="M193.786 -127C238.265 -127 277.184 -120.977 310.543 -108.932C344.829 -96.8875 373.555 -80.2098 396.721 -58.8994C420.814 -38.5156 438.884 -13.4991 450.93 16.1501C462.977 44.8728 469 75.9119 469 109.267C469 134.284 466.22 157.447 460.66 178.758C455.1 200.068 446.76 220.452 435.641 239.909C424.521 259.366 410.621 278.824 393.942 298.281C377.262 317.738 358.266 338.585 336.953 360.822C316.566 382.133 299.423 399.274 285.524 412.245C271.624 425.217 260.504 436.798 252.164 446.99C243.825 457.182 237.801 466.911 234.095 476.176C231.315 484.515 229.925 494.707 229.925 506.752C229.925 521.577 232.241 535.011 236.875 547.056L70.078 567.904C67.2981 558.638 64.5181 547.52 61.7382 534.548C58.9582 520.65 57.5683 506.289 57.5683 491.464C57.5683 453.476 66.3714 421.047 83.9777 394.178C102.511 367.308 127.067 337.659 157.646 305.23C176.179 285.773 191.932 268.632 204.905 253.807C217.878 238.056 228.535 223.695 236.875 210.723C245.214 196.825 251.238 182.927 254.944 169.029C258.651 155.131 260.504 139.843 260.504 123.165C260.504 98.1488 251.701 77.3016 234.095 60.624C216.488 43.0197 192.859 34.2176 163.206 34.2176C140.04 34.2176 119.19 37.4605 100.657 43.9463C82.1244 50.4321 62.2015 61.5505 40.8886 77.3017L-30 -58.8994C-1.2739 -79.2833 31.6221 -95.4977 68.688 -107.543C106.681 -120.514 148.38 -127 193.786 -127ZM54.7883 768.036C54.7883 752.285 57.5683 737.46 63.1281 723.562C69.6147 709.664 77.9545 697.619 88.1476 687.427C99.2674 677.235 111.314 669.36 124.287 663.8C138.187 658.241 152.55 655.461 167.376 655.461C182.202 655.461 196.102 658.241 209.075 663.8C222.975 669.36 235.021 677.235 245.215 687.427C255.408 697.619 263.284 709.664 268.844 723.562C275.331 737.46 278.574 752.285 278.574 768.036C278.574 802.318 267.454 830.114 245.215 851.424C222.975 871.808 197.029 882 167.376 882C137.723 882 111.314 871.808 88.1476 851.424C65.9081 830.114 54.7883 802.318 54.7883 768.036Z" fill="url(#paint0_linear_316_29)"/>
  </g>
  <defs>
  <linearGradient id="paint0_linear_316_29" x1="-96.7201" y1="448.352" x2="520.257" y2="448.352" gradientUnits="userSpaceOnUse">
  <stop stop-color="#0079E5"/>
  <stop offset="1" stop-color="#02B6F5"/>
  </linearGradient>
  <clipPath id="clip0_316_29">
  <rect width="469" height="756" fill="white"/>
  </clipPath>
  </defs>
  </svg>
