<svg width="20" height="20" viewBox="0 0 20 20" fill="none" xmlns="http://www.w3.org/2000/svg">
  <path fill-rule="evenodd" clip-rule="evenodd"
    d="M2 4.75C2 4.33579 2.33579 4 2.75 4H17.25C17.6642 4 18 4.33579 18 4.75C18 5.16421 17.6642 5.5 17.25 5.5H2.75C2.33579 5.5 2 5.16421 2 4.75ZM2 15.25C2 14.8358 2.33579 14.5 2.75 14.5H17.25C17.6642 14.5 18 14.8358 18 15.25C18 15.6642 17.6642 16 17.25 16H2.75C2.33579 16 2 15.6642 2 15.25Z"
    fill="#0F172A" />
  <path fill-rule="evenodd" clip-rule="evenodd"
    d="M5 10C5 9.58579 5.33579 9.25 5.75 9.25H13.25C13.6642 9.25 14 9.58579 14 10C14 10.4142 13.6642 10.75 13.25 10.75H5.75C5.33579 10.75 5 10.4142 5 10Z"
    fill="#0F172A" />
</svg>
