<svg width="469" height="756" fill="none" xmlns="http://www.w3.org/2000/svg"><g clip-path="url(#prefix__prefix__clip0_316_29)"><path d="M193.786-127c44.479 0 83.398 6.023 116.757 18.068 34.286 12.044 63.012 28.722 86.178 50.033 24.093 20.383 42.163 45.4 54.209 75.05C462.977 44.872 469 75.91 469 109.266c0 25.017-2.78 48.18-8.34 69.491-5.56 21.31-13.9 41.694-25.019 61.151-11.12 19.457-25.02 38.915-41.699 58.372-16.68 19.457-35.676 40.304-56.989 62.541-20.387 21.311-37.53 38.452-51.429 51.423-13.9 12.972-25.02 24.553-33.36 34.745-8.339 10.192-14.363 19.921-18.069 29.186-2.78 8.339-4.17 18.531-4.17 30.576 0 14.825 2.316 28.259 6.95 40.304L70.078 567.904c-2.78-9.266-5.56-20.384-8.34-33.356-2.78-13.898-4.17-28.259-4.17-43.084 0-37.988 8.803-70.417 26.41-97.286 18.533-26.87 43.089-56.519 73.668-88.948 18.533-19.457 34.286-36.598 47.259-51.423 12.973-15.751 23.63-30.112 31.97-43.084 8.339-13.898 14.363-27.796 18.069-41.694 3.707-13.898 5.56-29.186 5.56-45.864 0-25.016-8.803-45.863-26.409-62.541-17.607-17.604-41.236-26.406-70.889-26.406-23.166 0-44.016 3.242-62.549 9.728S62.202 61.551 40.889 77.302L-30-58.9c28.726-20.384 61.622-36.599 98.688-48.644C106.681-120.514 148.38-127 193.786-127zM54.788 768.036c0-15.751 2.78-30.576 8.34-44.474 6.487-13.898 14.826-25.943 25.02-36.135 11.12-10.192 23.166-18.067 36.139-23.627 13.9-5.559 28.263-8.339 43.089-8.339 14.826 0 28.726 2.78 41.699 8.339 13.9 5.56 25.946 13.435 36.14 23.627 10.193 10.192 18.069 22.237 23.629 36.135 6.487 13.898 9.73 28.723 9.73 44.474 0 34.282-11.12 62.078-33.359 83.388C222.975 871.808 197.029 882 167.376 882s-56.062-10.192-79.228-30.576c-22.24-21.31-33.36-49.106-33.36-83.388z" fill="url(#prefix__prefix__paint0_linear_316_29)"/></g><defs><linearGradient id="prefix__prefix__paint0_linear_316_29" x1="-96.72" y1="448.352" x2="520.257" y2="448.352" gradientUnits="userSpaceOnUse"><stop stop-color="#0079E5"/><stop offset="1" stop-color="#02B6F5"/></linearGradient><clipPath id="prefix__prefix__clip0_316_29"><path fill="#fff" d="M0 0h469v756H0z"/></clipPath></defs></svg>
